<svg id="Layer_1" data-name="Layer 1" xmlns="http://www.w3.org/2000/svg" viewBox="0 0 70 90"><defs><style>.cls-1{fill:#20c4f4;}</style></defs><title>icon-benefitassetmgmt-managemaintenance</title><path class="cls-1" d="M53.75,0H16.25A1.25,1.25,0,0,0,15,1.25V5H7.5A7.51,7.51,0,0,0,0,12.5v70A7.51,7.51,0,0,0,7.5,90h55A7.51,7.51,0,0,0,70,82.5v-70A7.51,7.51,0,0,0,62.5,5H55V1.25A1.25,1.25,0,0,0,53.75,0ZM17.5,2.5h35V8.75a3.75,3.75,0,0,1-3.75,3.75H21.25A3.75,3.75,0,0,1,17.5,8.75V2.5Zm45,7.5A2.5,2.5,0,0,1,65,12.5v70A2.5,2.5,0,0,1,62.5,85H7.5A2.5,2.5,0,0,1,5,82.5v-70A2.5,2.5,0,0,1,7.5,10h7.63a6.26,6.26,0,0,0,6.12,5h27.5a6.26,6.26,0,0,0,6.12-5H62.5Z"/><path class="cls-1" d="M25.37,22.87L16.25,32l-4.12-4.12a1.25,1.25,0,1,0-1.77,1.77l5,5a1.25,1.25,0,0,0,1.77,0l10-10A1.25,1.25,0,0,0,25.37,22.87Z"/><path class="cls-1" d="M25.37,42.87L16.25,52l-4.12-4.12a1.25,1.25,0,1,0-1.77,1.77l5,5a1.25,1.25,0,0,0,1.77,0l10-10A1.25,1.25,0,1,0,25.37,42.87Z"/><path class="cls-1" d="M24.63,62.87a1.25,1.25,0,0,0-1.77,0L18.75,67l-4.12-4.12a1.25,1.25,0,0,0-1.77,1.77L17,68.75l-4.12,4.12a1.25,1.25,0,0,0,1.77,1.77l4.12-4.12,4.12,4.12a1.25,1.25,0,1,0,1.77-1.77l-4.12-4.12,4.12-4.12A1.25,1.25,0,0,0,24.63,62.87Z"/><path class="cls-1" d="M32.5,23.75A1.25,1.25,0,0,0,33.75,25h25a1.25,1.25,0,0,0,0-2.5h-25A1.25,1.25,0,0,0,32.5,23.75Z"/><path class="cls-1" d="M58.75,27.5h-25a1.25,1.25,0,0,0,0,2.5h25A1.25,1.25,0,0,0,58.75,27.5Z"/><path class="cls-1" d="M33.75,35h12.5a1.25,1.25,0,0,0,0-2.5H33.75A1.25,1.25,0,0,0,33.75,35Z"/><path class="cls-1" d="M58.75,42.5h-25a1.25,1.25,0,0,0,0,2.5h25A1.25,1.25,0,0,0,58.75,42.5Z"/><path class="cls-1" d="M58.75,47.5h-25a1.25,1.25,0,0,0,0,2.5h25A1.25,1.25,0,0,0,58.75,47.5Z"/><path class="cls-1" d="M33.75,55h17.5a1.25,1.25,0,0,0,0-2.5H33.75A1.25,1.25,0,0,0,33.75,55Z"/><path class="cls-1" d="M58.75,62.5h-25a1.25,1.25,0,0,0,0,2.5h25A1.25,1.25,0,0,0,58.75,62.5Z"/><path class="cls-1" d="M58.75,67.5h-25a1.25,1.25,0,0,0,0,2.5h25A1.25,1.25,0,0,0,58.75,67.5Z"/><path class="cls-1" d="M58.75,72.5h-25a1.25,1.25,0,0,0,0,2.5h25A1.25,1.25,0,0,0,58.75,72.5Z"/></svg>